<svg width="918" height="602" viewBox="0 0 918 602" fill="none" xmlns="http://www.w3.org/2000/svg">
<rect width="918" height="602" fill="#F5F5F5"/>
<g id="undraw_Growth_curve_re_t5s7 1" clip-path="url(#clip0)">
<g id="body">
<path id="Vector" d="M214.359 338.005C215.436 336.609 216.194 334.993 216.58 333.271C216.966 331.55 216.969 329.765 216.59 328.042C216.211 326.319 215.459 324.7 214.386 323.299C213.314 321.898 211.948 320.75 210.383 319.934L216.648 277.513L196.453 286.931L193.6 325.771C192.404 328.49 192.247 331.553 193.158 334.38C194.07 337.207 195.986 339.601 198.545 341.109C201.104 342.617 204.127 343.134 207.042 342.562C209.956 341.99 212.56 340.369 214.359 338.005V338.005Z" fill="#FFB6B6"/>
<path id="Vector_2" d="M303.127 581.915L321.864 581.914L330.778 509.641L303.124 509.643L303.127 581.915Z" fill="#FFB6B6"/>
<path id="Vector_3" d="M298.348 575.797L335.248 575.796H335.25C341.486 575.796 347.468 578.274 351.878 582.684C356.288 587.094 358.765 593.075 358.766 599.312V600.076L298.349 600.078L298.348 575.797Z" fill="#2F2E41"/>
<path id="Vector_4" d="M203.127 581.915L221.864 581.914L230.778 509.641L203.124 509.643L203.127 581.915Z" fill="#FFB6B6"/>
<path id="Vector_5" d="M198.348 575.797L235.248 575.796H235.25C241.486 575.796 247.468 578.274 251.878 582.684C256.288 587.094 258.765 593.075 258.766 599.312V600.076L198.349 600.078L198.348 575.797Z" fill="#2F2E41"/>
<path id="Vector_6" d="M211.182 298.76C211.182 298.76 211.681 450.224 209.263 452.641C206.845 455.059 198.263 545.641 198.263 545.641H228.263C230.263 545.641 281.296 348.323 281.296 348.323C281.296 348.323 303.055 454.702 299.429 460.746C295.802 466.79 298.629 546.025 300.637 552.618C300.637 552.618 325.845 560.686 328.263 554.641C330.681 548.597 334.263 466.641 334.263 466.641L341.263 330.641L341.416 295.133L211.182 298.76Z" fill="#2F2E41"/>
<path id="Vector_7" d="M264.372 102.552C264.372 102.552 221.458 116.828 216.622 128.916C211.787 141.005 235.263 228.641 235.263 228.641C235.263 228.641 226.263 268.641 214.205 306.617C208.717 323.9 261.086 309.103 285.263 300.641C300.244 295.446 327.954 303.425 343.552 300.573C343.552 300.573 345.969 267.934 343.552 261.89C341.134 255.846 335.09 259.472 338.716 251.01C342.343 242.548 341.134 241.339 339.925 237.713C338.716 234.086 342.343 229.251 342.343 224.415C342.343 219.58 341.134 208.7 341.134 208.7C341.134 208.7 373.773 132.543 366.52 125.29C359.267 118.037 322.347 104.061 322.347 104.061C322.347 104.061 323.263 104.641 264.372 102.552Z" fill="#E4E4E4"/>
<path id="Vector_8" d="M224.48 124.685L220.187 126.832C218.515 127.667 217.06 128.878 215.935 130.37C214.81 131.862 214.045 133.594 213.701 135.43L196.676 226.229L193.05 312.057C193.05 312.057 213.6 306.013 219.644 312.057C219.644 312.057 213.6 293.924 217.227 287.88C220.853 281.836 220.853 273.374 220.853 273.374C220.853 273.374 218.436 273.374 224.48 267.33C230.524 261.285 231.733 258.868 230.524 257.659C229.315 256.45 228.106 245.57 228.106 244.362C228.106 243.153 240.195 162.16 240.195 162.16L224.48 124.685Z" fill="#E4E4E4"/>
<path id="Vector_9" d="M330.151 331.567C329.525 329.918 329.269 328.151 329.399 326.392C329.53 324.632 330.045 322.923 330.907 321.384C331.77 319.846 332.959 318.515 334.392 317.485C335.825 316.456 337.466 315.753 339.199 315.427L345.514 273.012L362.107 287.886L353.567 325.883C353.922 328.831 353.184 331.808 351.492 334.249C349.799 336.69 347.27 338.425 344.384 339.125C341.498 339.826 338.455 339.443 335.831 338.05C333.208 336.657 331.187 334.35 330.151 331.567V331.567Z" fill="#FFB6B6"/>
<path id="Vector_10" d="M350.2 124.685H363.669C364.658 124.685 365.619 125.021 366.392 125.639C367.165 126.257 367.704 127.119 367.922 128.085C370 137.288 375.356 163.374 374.377 183.919C373.169 209.305 370.751 249.197 370.751 252.823C370.751 256.45 358.662 312.057 358.662 312.057C358.662 312.057 350.352 298.398 341.21 300.997L342.947 251.615L345.365 231.064L341.738 194.799L350.2 124.685Z" fill="#E4E4E4"/>
</g>
<g id="graph">
<path id="Vector_11" d="M476.137 6.62943C474.282 6.63151 472.502 7.36967 471.19 8.68198C469.878 9.99428 469.14 11.7735 469.137 13.6294V309.629C469.14 311.485 469.878 313.264 471.19 314.577C472.503 315.889 474.282 316.627 476.137 316.629H910.137C911.993 316.627 913.772 315.889 915.085 314.577C916.397 313.264 917.135 311.485 917.137 309.629V13.6294C917.135 11.7736 916.397 9.99435 915.085 8.68207C913.773 7.36978 911.993 6.63159 910.137 6.62943H476.137Z" fill="#E6E6E6"/>
<path id="Vector_12" d="M486.137 16.6294C484.282 16.6315 482.502 17.3697 481.19 18.682C479.878 19.9943 479.14 21.7735 479.137 23.6294V299.629C479.14 301.485 479.878 303.264 481.19 304.576C482.502 305.889 484.282 306.627 486.137 306.629H900.137C901.993 306.627 903.773 305.889 905.085 304.576C906.397 303.264 907.135 301.485 907.137 299.629V23.6294C907.135 21.7736 906.397 19.9944 905.085 18.6821C903.773 17.3698 901.993 16.6316 900.137 16.6294H486.137Z" fill="white"/>
<path id="Vector_13" opacity="0.1" d="M868.124 76.9835C858.604 73.2665 848.338 82.5885 846.108 92.5624C843.877 102.536 846.732 112.851 847.36 123.052C847.988 133.253 845.315 145.098 836.214 149.749C825.748 155.096 813.472 148.144 801.768 147.085C795.925 146.621 790.06 147.647 784.721 150.065C779.382 152.484 774.744 156.217 771.239 160.915C761.587 174.158 762.077 193.388 750.654 205.138C740.73 215.348 724.556 216.677 710.672 213.52C696.788 210.362 684.026 203.504 670.373 199.46C656.721 195.417 640.919 194.572 629.219 202.688C617.005 211.16 611.57 227.767 598.162 234.184C588.682 238.721 577.46 236.99 567.315 234.243C557.169 231.496 546.939 227.789 536.465 228.671C525.992 229.552 515.073 236.779 514.243 247.257L873.705 246.253C875.338 198.807 876.97 151.361 878.604 103.915C878.958 93.6084 877.731 80.7343 868.124 76.9835Z" fill="#6D070B"/>
<path id="Vector_14" d="M512.524 246.089C511.994 246.089 511.485 245.878 511.11 245.503C510.735 245.128 510.524 244.62 510.524 244.089C510.524 243.559 510.735 243.05 511.11 242.675C511.485 242.3 511.994 242.089 512.524 242.089C604.939 242.089 693.074 223.585 760.694 189.986C824.101 158.479 864.508 115.754 871.551 72.7659C871.592 72.5064 871.685 72.2576 871.823 72.0338C871.961 71.81 872.141 71.6156 872.355 71.4617C872.568 71.3078 872.809 71.1975 873.065 71.137C873.321 71.0765 873.586 71.067 873.846 71.1091C874.105 71.1513 874.354 71.2442 874.577 71.3825C874.801 71.5208 874.995 71.7018 875.149 71.9152C875.302 72.1286 875.412 72.3702 875.472 72.6261C875.532 72.8821 875.541 73.1474 875.499 73.4068L875.498 73.4124C871.84 95.743 859.964 117.648 840.202 138.519C820.712 159.103 794.56 177.625 762.474 193.568C694.312 227.437 605.545 246.089 512.524 246.089Z" fill="#6D070B"/>
<path id="Vector_15" d="M892.138 246.493H510.138V57.765H512.138V244.493H892.138V246.493Z" fill="#E6E6E6"/>
</g>
<g id="head">
<path id="Vector_16" d="M291.306 88.5842C310 88.5842 325.154 73.43 325.154 54.7364C325.154 36.0428 310 20.8886 291.306 20.8886C272.612 20.8886 257.458 36.0428 257.458 54.7364C257.458 73.43 272.612 88.5842 291.306 88.5842Z" fill="#FFB6B6"/>
<path id="Vector_17" d="M259.403 66.139C257.856 62.3418 257.607 58.1397 258.696 54.1864C261.46 61.5197 266.954 59.2813 269.753 55.8422C273.263 51.5295 272.252 41.5697 277.794 41.1241C283.337 40.6784 288.879 41.7273 294.34 42.7714C293.435 41.222 292.53 39.6726 291.626 38.1232C295.576 38.3684 299.527 38.6135 303.477 38.8587C302.301 36.9233 301.125 34.988 299.948 33.0527C305.319 34.9399 310.232 37.9376 314.366 41.8503C318.501 45.763 321.765 50.503 323.945 55.7614C325.994 52.4446 327.271 48.7093 327.68 44.8322C328.089 40.9551 327.621 37.0356 326.31 33.364C324.999 29.6924 322.878 26.3628 320.106 23.622C317.333 20.8812 313.979 18.7994 310.293 17.5308C311.851 15.4861 313.409 13.4415 314.968 11.3969L283.247 8.26675C283.168 6.7378 283.462 5.21265 284.106 3.82333C284.749 2.43402 285.721 1.22242 286.938 0.293441C282.784 -0.644559 278.378 0.76253 274.849 3.1445C271.319 5.5265 268.512 8.81124 265.752 12.0537C261.572 16.9632 257.342 21.9496 254.607 27.7877C251.801 34.0028 250.764 40.8716 251.61 47.6381C252.456 54.4046 255.153 60.8064 259.403 66.139V66.139ZM259.787 51.244L259.787 51.2422L259.819 51.2365L259.787 51.244Z" fill="#2F2E41"/>
</g>
<g id="grass">
<path id="Vector_18" d="M328.397 520.937C331.715 494.258 348.248 467.973 373.691 459.291C363.657 486.75 363.66 516.874 373.697 544.331C377.607 554.907 383.057 566.262 379.379 576.92C377.091 583.552 371.493 588.626 365.237 591.799C358.979 594.971 352.035 596.484 345.178 597.965L343.828 599.082C332.942 574.501 325.079 547.615 328.397 520.937Z" fill="#F0F0F0"/>
<path id="Vector_19" d="M373.944 459.795C359.127 476.397 349.918 497.245 347.625 519.379C347.046 524.135 347.221 528.952 348.143 533.654C349.189 538.205 351.435 542.393 354.647 545.782C357.578 549.003 360.949 551.958 363.047 555.835C364.091 557.835 364.7 560.034 364.835 562.286C364.97 564.539 364.627 566.795 363.829 568.905C361.977 574.216 358.328 578.545 354.611 582.655C350.485 587.217 346.127 591.891 344.373 597.94C344.161 598.673 343.036 598.3 343.248 597.569C346.3 587.045 356.516 581.067 361.388 571.588C363.661 567.165 364.615 562.03 362.484 557.361C360.62 553.278 357.147 550.228 354.15 546.993C350.969 543.732 348.634 539.742 347.35 535.371C346.191 530.732 345.831 525.929 346.284 521.169C347.133 510.435 349.664 499.902 353.785 489.955C358.426 478.577 364.978 468.076 373.16 458.907C373.666 458.339 374.447 459.232 373.944 459.795Z" fill="white"/>
<path id="Vector_20" d="M347.944 512.209C344.282 511.32 341.056 509.158 338.841 506.11C336.627 503.062 335.567 499.326 335.853 495.57C335.913 494.81 337.097 494.868 337.037 495.629C336.764 499.127 337.751 502.607 339.82 505.441C341.888 508.275 344.901 510.276 348.315 511.083C349.057 511.26 348.681 512.384 347.944 512.209Z" fill="white"/>
<path id="Vector_21" d="M352.945 544.345C359.558 540.397 364.44 534.101 366.617 526.713C366.832 525.981 367.957 526.353 367.742 527.085C365.462 534.768 360.369 541.31 353.478 545.403C352.821 545.793 352.292 544.733 352.945 544.345L352.945 544.345Z" fill="white"/>
<path id="Vector_22" d="M359.525 479.699C360.87 480.338 362.353 480.633 363.84 480.558C365.327 480.482 366.772 480.039 368.046 479.266C368.697 478.869 369.226 479.93 368.578 480.325C367.168 481.171 365.571 481.659 363.928 481.746C362.285 481.833 360.646 481.517 359.154 480.824C359.007 480.771 358.887 480.664 358.817 480.525C358.747 480.386 358.733 480.225 358.777 480.076C358.827 479.927 358.933 479.804 359.073 479.734C359.214 479.663 359.376 479.651 359.525 479.699V479.699Z" fill="white"/>
<path id="Vector_23" d="M451.245 506.941C450.845 507.201 450.445 507.461 450.045 507.731C444.686 511.255 439.623 515.208 434.905 519.551C434.535 519.881 434.165 520.221 433.805 520.561C422.549 531.147 413.357 543.73 406.695 557.671C404.049 563.221 401.829 568.965 400.055 574.851C397.605 582.981 395.595 591.991 390.745 598.641C390.247 599.341 389.705 600.009 389.125 600.641H345.295C345.195 600.591 345.095 600.551 344.995 600.501L343.245 600.581C343.315 600.271 343.395 599.951 343.465 599.641C343.505 599.461 343.555 599.281 343.595 599.101C343.625 598.981 343.655 598.861 343.675 598.751C343.685 598.711 343.695 598.671 343.705 598.641C343.725 598.531 343.755 598.431 343.775 598.331C344.215 596.541 344.668 594.751 345.135 592.961C345.135 592.951 345.135 592.951 345.145 592.941C348.735 579.311 353.495 565.861 360.145 553.561C360.345 553.191 360.545 552.811 360.765 552.441C363.793 546.914 367.268 541.643 371.155 536.681C373.292 533.971 375.565 531.371 377.965 528.891C384.179 522.495 391.36 517.116 399.245 512.951C414.965 504.651 433.165 501.471 449.965 506.541C450.395 506.671 450.815 506.801 451.245 506.941Z" fill="#F0F0F0"/>
<path id="Vector_24" d="M451.146 507.498C429.321 511.833 409.416 522.934 394.259 539.226C390.933 542.675 388.173 546.627 386.078 550.936C384.173 555.199 383.445 559.895 383.969 564.535C384.37 568.872 385.283 573.261 384.623 577.619C384.252 579.845 383.415 581.967 382.167 583.847C380.918 585.727 379.286 587.321 377.378 588.526C372.702 591.652 367.182 592.911 361.74 593.955C355.699 595.113 349.405 596.221 344.363 599.995C343.752 600.452 343.078 599.478 343.688 599.021C352.461 592.455 364.217 593.833 373.814 589.198C378.292 587.035 382.146 583.51 383.255 578.499C384.225 574.117 383.288 569.59 382.843 565.203C382.266 560.684 382.804 556.092 384.41 551.829C386.279 547.427 388.883 543.376 392.11 539.848C399.251 531.789 407.613 524.903 416.893 519.442C427.448 513.15 439.003 508.711 451.055 506.316C451.801 506.168 451.887 507.351 451.146 507.498V507.498Z" fill="white"/>
<path id="Vector_25" d="M398.83 533.693C396.442 530.779 395.168 527.111 395.234 523.343C395.301 519.576 396.704 515.956 399.194 513.128C399.7 512.558 400.61 513.317 400.104 513.888C397.78 516.517 396.473 519.89 396.418 523.398C396.363 526.906 397.564 530.318 399.804 533.018C400.29 533.605 399.314 534.277 398.83 533.693V533.693Z" fill="white"/>
<path id="Vector_26" d="M383.476 562.363C391.133 563.192 398.821 561.104 405.007 556.516C405.619 556.061 406.293 557.036 405.682 557.49C399.235 562.253 391.23 564.409 383.264 563.529C382.505 563.445 382.72 562.279 383.476 562.363V562.363Z" fill="white"/>
<path id="Vector_27" d="M427.65 514.708C428.339 516.029 429.346 517.157 430.578 517.992C431.811 518.827 433.232 519.343 434.714 519.493C435.474 519.568 435.257 520.733 434.502 520.659C432.866 520.485 431.297 519.914 429.933 518.994C428.569 518.074 427.451 516.835 426.676 515.383C426.592 515.252 426.56 515.095 426.588 514.941C426.616 514.788 426.701 514.651 426.826 514.559C426.955 514.47 427.115 514.436 427.269 514.464C427.423 514.492 427.56 514.58 427.65 514.708V514.708Z" fill="white"/>
<path id="Vector_28" d="M648.485 601.202H1.19069C0.875498 601.201 0.573534 601.075 0.350983 600.852C0.128431 600.629 0.00344849 600.327 0.00344849 600.011C0.00344849 599.696 0.128431 599.394 0.350983 599.171C0.573534 598.948 0.875498 598.822 1.19069 598.821H648.485C648.8 598.822 649.102 598.948 649.324 599.171C649.547 599.394 649.672 599.696 649.672 600.011C649.672 600.327 649.547 600.629 649.324 600.852C649.102 601.075 648.8 601.201 648.485 601.202V601.202Z" fill="#CACACA"/>
</g>
</g>
<defs>
<clipPath id="clip0">
<rect width="917.138" height="601.202" fill="white"/>
</clipPath>
</defs>
</svg>
